<svg width="38" height="38" viewBox="0 0 38 38" fill="none" xmlns="http://www.w3.org/2000/svg">
<ellipse cx="19" cy="19" rx="19" ry="19" transform="rotate(90 19 19)" fill="white"/>
<path d="M18.3488 20.2835C18.434 20.3694 18.5354 20.4376 18.6471 20.4841C18.7588 20.5306 18.8786 20.5546 18.9996 20.5546C19.1206 20.5546 19.2404 20.5306 19.3521 20.4841C19.4638 20.4376 19.5652 20.3694 19.6504 20.2835L23.8488 16.076C23.934 15.99 24.0354 15.9218 24.1471 15.8753C24.2588 15.8288 24.3786 15.8048 24.4996 15.8048C24.6206 15.8048 24.7404 15.8288 24.8521 15.8753C24.9638 15.9218 25.0652 15.99 25.1504 16.076C25.3212 16.2477 25.417 16.48 25.417 16.7222C25.417 16.9644 25.3212 17.1967 25.1504 17.3685L20.9429 21.576C20.4273 22.0909 19.7283 22.3802 18.9996 22.3802C18.2708 22.3802 17.5719 22.0909 17.0563 21.576L12.8488 17.3685C12.6794 17.1977 12.5839 16.9673 12.5829 16.7268C12.5822 16.6062 12.6053 16.4866 12.651 16.3749C12.6966 16.2632 12.7638 16.1616 12.8488 16.076C12.934 15.99 13.0353 15.9218 13.1471 15.8753C13.2588 15.8288 13.3786 15.8048 13.4996 15.8048C13.6206 15.8048 13.7404 15.8288 13.8521 15.8753C13.9638 15.9218 14.0652 15.99 14.1504 16.076L18.3488 20.2835Z" fill="#4F2EE8"/>
</svg>
