<?xml version="1.0" encoding="UTF-8"?>
<svg xmlns="http://www.w3.org/2000/svg" xmlns:xlink="http://www.w3.org/1999/xlink" width="48" height="48" viewBox="0 0 471.56 37.33" version="1.1">
<defs>
<clipPath id="clip1">
  <path d="M 35 0 L 75 0 L 75 37.328125 L 35 37.328125 Z M 35 0 "/>
</clipPath>
<clipPath id="clip2">
  <path d="M 76 0 L 116 0 L 116 37.328125 L 76 37.328125 Z M 76 0 "/>
</clipPath>
<clipPath id="clip3">
  <path d="M 155 0 L 186 0 L 186 37.328125 L 155 37.328125 Z M 155 0 "/>
</clipPath>
<clipPath id="clip4">
  <path d="M 383 0 L 423 0 L 423 37.328125 L 383 37.328125 Z M 383 0 "/>
</clipPath>
<clipPath id="clip5">
  <path d="M 464 0 L 471.558594 0 L 471.558594 9 L 464 9 Z M 464 0 "/>
</clipPath>
</defs>
<g id="surface1">
<path style=" stroke:none;fill-rule:nonzero;fill:rgb(13.699341%,12.199402%,12.5%);fill-opacity:1;" d="M 30.222656 4.910156 C 31.882813 7.242188 32.015625 10.695313 31.34375 12.800781 C 30.265625 16.074219 28.519531 17.195313 25.46875 18.226563 C 27.933594 19.078125 29.820313 19.84375 31.523438 22.847656 C 32.867188 25.269531 32.867188 29.035156 31.566406 31.320313 C 29.011719 35.984375 21.835938 35.984375 19.550781 35.984375 L 0 35.984375 L 0 0.695313 L 18.878906 0.695313 C 22.015625 0.695313 27.441406 0.964844 30.222656 4.910156 Z M 12.0625 14.148438 L 15.515625 14.148438 C 17.757813 14.148438 19.148438 13.609375 19.148438 11.277344 C 19.148438 9.167969 17.757813 8.40625 15.515625 8.40625 L 12.0625 8.40625 Z M 12.0625 28.363281 L 16.007813 28.363281 C 18.25 28.363281 19.640625 27.824219 19.640625 25.492188 C 19.640625 23.382813 18.25 22.621094 16.007813 22.621094 L 12.0625 22.621094 L 12.0625 28.363281 "/>
<g clip-path="url(#clip1)" clip-rule="nonzero">
<path style=" stroke:none;fill-rule:nonzero;fill:rgb(13.699341%,12.199402%,12.5%);fill-opacity:1;" d="M 35.019531 18.722656 C 35.019531 8.453125 43.449219 0.113281 54.570313 0.113281 C 65.78125 0.113281 74.121094 8.453125 74.121094 18.722656 C 74.121094 28.988281 65.78125 37.328125 54.570313 37.328125 C 43.539063 37.328125 35.019531 28.988281 35.019531 18.722656 Z M 54.660156 26.121094 C 58.648438 26.121094 61.832031 22.710938 61.832031 18.722656 C 61.832031 14.730469 58.785156 11.320313 54.613281 11.320313 C 50.355469 11.320313 47.304688 14.730469 47.304688 18.722656 C 47.304688 22.710938 50.355469 26.121094 54.660156 26.121094 "/>
</g>
<g clip-path="url(#clip2)" clip-rule="nonzero">
<path style=" stroke:none;fill-rule:nonzero;fill:rgb(13.699341%,12.199402%,12.5%);fill-opacity:1;" d="M 76.832031 18.722656 C 76.832031 8.453125 85.261719 0.113281 96.382813 0.113281 C 107.59375 0.113281 115.933594 8.453125 115.933594 18.722656 C 115.933594 28.988281 107.59375 37.328125 96.382813 37.328125 C 85.351563 37.328125 76.832031 28.988281 76.832031 18.722656 Z M 96.472656 26.121094 C 100.464844 26.121094 103.644531 22.710938 103.644531 18.722656 C 103.644531 14.730469 100.597656 11.320313 96.425781 11.320313 C 92.167969 11.320313 89.117188 14.730469 89.117188 18.722656 C 89.117188 22.710938 92.167969 26.121094 96.472656 26.121094 "/>
</g>
<path style=" stroke:none;fill-rule:nonzero;fill:rgb(13.699341%,12.199402%,12.5%);fill-opacity:1;" d="M 193.765625 24.445313 C 196.636719 24.445313 198.929688 21.992188 198.929688 19.117188 C 198.929688 16.246094 196.734375 13.792969 193.730469 13.792969 C 190.664063 13.792969 188.46875 16.246094 188.46875 19.117188 C 188.46875 21.992188 190.664063 24.445313 193.765625 24.445313 "/>
<path style=" stroke:none;fill-rule:nonzero;fill:rgb(13.699341%,12.199402%,12.5%);fill-opacity:1;" d="M 243.378906 24.457031 C 246.25 24.457031 248.542969 22.003906 248.542969 19.128906 C 248.542969 16.257813 246.347656 13.804688 243.34375 13.804688 C 240.277344 13.804688 238.082031 16.257813 238.082031 19.128906 C 238.082031 22.003906 240.277344 24.457031 243.378906 24.457031 "/>
<path style=" stroke:none;fill-rule:nonzero;fill:rgb(13.699341%,12.199402%,12.5%);fill-opacity:1;" d="M 131.738281 0.695313 L 131.738281 15.402344 L 140.972656 0.695313 L 154.113281 0.695313 L 143.621094 16.882813 L 155.726563 35.984375 L 141.289063 35.984375 L 131.738281 20.964844 L 131.738281 35.984375 L 119.675781 35.984375 L 119.675781 0.695313 L 131.738281 0.695313 "/>
<g clip-path="url(#clip3)" clip-rule="nonzero">
<path style=" stroke:none;fill-rule:nonzero;fill:rgb(13.699341%,12.199402%,12.5%);fill-opacity:1;" d="M 175.757813 11.097656 C 174.90625 8.8125 174.144531 7.914063 171.855469 7.644531 C 170.914063 7.511719 168.941406 7.601563 168 8.8125 C 167.507813 9.527344 167.464844 10.289063 167.730469 10.917969 C 168.492188 12.800781 171.453125 12.667969 173.203125 12.800781 C 176.476563 13.027344 181.363281 13.789063 183.875 18.316406 C 185.53125 21.367188 185.53125 26.074219 183.828125 29.4375 C 181.230469 34.550781 176.117188 36.476563 172.125 36.925781 C 168.988281 37.375 161.945313 36.882813 158.136719 32.578125 C 157.371094 31.722656 156.699219 30.648438 155.9375 28.628906 L 164.546875 25.402344 C 165.9375 27.914063 167.371094 28.988281 169.703125 29.035156 C 170.871094 29.035156 172.351563 28.765625 173.15625 27.554688 C 173.515625 26.972656 173.648438 26.164063 173.203125 25.355469 C 172.394531 23.789063 170.199219 23.832031 168.226563 23.742188 C 165.355469 23.5625 160.199219 22.53125 157.820313 18.046875 C 155.984375 14.640625 156.027344 10.425781 157.867188 6.839844 C 160.242188 2.175781 164.503906 0.605469 168.226563 0.0664063 C 171.230469 -0.382813 178.222656 -0.335938 181.8125 3.429688 C 182.886719 4.6875 183.515625 6.03125 184.007813 7.871094 L 175.757813 11.097656 "/>
</g>
<path style=" stroke:none;fill-rule:nonzero;fill:rgb(13.699341%,12.199402%,12.5%);fill-opacity:1;" d="M 209.742188 36.203125 L 196.390625 36.203125 L 217.691406 0.00390625 L 218.828125 0.00390625 L 240.128906 36.203125 L 226.773438 36.203125 L 224.777344 31.84375 L 211.742188 31.84375 Z M 218.234375 17.492188 L 215.148438 24.304688 L 221.371094 24.304688 Z M 218.234375 17.492188 "/>
<path style=" stroke:none;fill-rule:nonzero;fill:rgb(13.699341%,12.199402%,12.5%);fill-opacity:1;" d="M 253.359375 0.246094 L 270.171875 14.191406 L 287.839844 0.246094 L 288.738281 0.246094 L 289.8125 35.984375 L 278.15625 35.984375 L 277.480469 23.027344 L 270.128906 28.945313 L 262.101563 22.710938 L 261.609375 35.984375 L 250.847656 35.984375 L 252.371094 0.246094 L 253.359375 0.246094 "/>
<path style=" stroke:none;fill-rule:nonzero;fill:rgb(13.699341%,12.199402%,12.5%);fill-opacity:1;" d="M 307.496094 0.695313 L 307.496094 35.984375 L 295.433594 35.984375 L 295.433594 0.695313 L 307.496094 0.695313 "/>
<path style=" stroke:none;fill-rule:nonzero;fill:rgb(13.699341%,12.199402%,12.5%);fill-opacity:1;" d="M 326.28125 0.695313 L 326.28125 27.867188 L 336.851563 27.867188 L 336.851563 35.984375 L 314.21875 35.984375 L 314.21875 0.695313 L 326.28125 0.695313 "/>
<path style=" stroke:none;fill-rule:nonzero;fill:rgb(13.699341%,12.199402%,12.5%);fill-opacity:1;" d="M 353.882813 0.695313 L 353.882813 27.867188 L 364.453125 27.867188 L 364.453125 35.984375 L 341.820313 35.984375 L 341.820313 0.695313 L 353.882813 0.695313 "/>
<path style=" stroke:none;fill-rule:nonzero;fill:rgb(13.699341%,12.199402%,12.5%);fill-opacity:1;" d="M 380.355469 0.695313 L 380.355469 35.984375 L 368.289063 35.984375 L 368.289063 0.695313 L 380.355469 0.695313 "/>
<g clip-path="url(#clip4)" clip-rule="nonzero">
<path style=" stroke:none;fill-rule:nonzero;fill:rgb(13.699341%,12.199402%,12.5%);fill-opacity:1;" d="M 383.402344 18.722656 C 383.402344 8.453125 391.835938 0.113281 402.953125 0.113281 C 414.164063 0.113281 422.503906 8.453125 422.503906 18.722656 C 422.503906 28.988281 414.164063 37.328125 402.953125 37.328125 C 391.921875 37.328125 383.402344 28.988281 383.402344 18.722656 Z M 403.042969 26.121094 C 407.035156 26.121094 410.21875 22.710938 410.21875 18.722656 C 410.21875 14.730469 407.167969 11.320313 403 11.320313 C 398.738281 11.320313 395.691406 14.730469 395.691406 18.722656 C 395.691406 22.710938 398.738281 26.121094 403.042969 26.121094 "/>
</g>
<path style=" stroke:none;fill-rule:nonzero;fill:rgb(13.699341%,12.199402%,12.5%);fill-opacity:1;" d="M 426.746094 0.246094 L 449.4375 14.507813 L 449.4375 0.695313 L 461.5 0.695313 L 461.5 36.925781 L 460.648438 36.925781 L 437.554688 22.621094 L 437.554688 35.984375 L 425.492188 35.984375 L 425.492188 0.246094 L 426.746094 0.246094 "/>
<g clip-path="url(#clip5)" clip-rule="nonzero">
<path style=" stroke:none;fill-rule:nonzero;fill:rgb(13.699341%,12.199402%,12.5%);fill-opacity:1;" d="M 464.851563 4.386719 C 464.851563 2.644531 466.171875 1.335938 467.855469 1.335938 C 469.515625 1.335938 470.824219 2.644531 470.824219 4.386719 C 470.824219 6.152344 469.515625 7.449219 467.855469 7.449219 C 466.171875 7.449219 464.851563 6.152344 464.851563 4.386719 Z M 467.855469 8.058594 C 469.855469 8.058594 471.558594 6.507813 471.558594 4.386719 C 471.558594 2.273438 469.855469 0.730469 467.855469 0.730469 C 465.828125 0.730469 464.117188 2.273438 464.117188 4.386719 C 464.117188 6.507813 465.828125 8.058594 467.855469 8.058594 Z M 467.074219 4.679688 L 467.816406 4.679688 L 468.933594 6.507813 L 469.652344 6.507813 L 468.445313 4.648438 C 469.070313 4.570313 469.546875 4.242188 469.546875 3.480469 C 469.546875 2.644531 469.050781 2.273438 468.046875 2.273438 L 466.433594 2.273438 L 466.433594 6.507813 L 467.074219 6.507813 Z M 467.074219 4.132813 L 467.074219 2.816406 L 467.949219 2.816406 C 468.398438 2.816406 468.875 2.914063 468.875 3.441406 C 468.875 4.09375 468.390625 4.132813 467.84375 4.132813 L 467.074219 4.132813 "/>
</g>
</g>
</svg>
